# xmcd CD database file
#
# Track frame offsets:
#	150
#	15350
#	29335
#	44185
#	57690
#	76167
#	92290
#	111925
#	128025
#	139792
#	155950
#	173852
#	187107
#	202572
#	220700
#	243622
#	248282
#	277855
#
# Disc length: 4440 seconds
#
# Revision: 0
# Processed by: cddbd v1.5.1PL0 Copyright (c) Steve Scherf et al.
# Submitted via: CDex 1.51
#
DISCID=f2115612
DTITLE=fountains of wayne - WELCOME INTERSTATE MANAGERS
DYEAR=2003
DGENRE=Pop
TTITLE0=Mexican Wine
TTITLE1=Bright Future In Sales
TTITLE2=Stacy's Mom
TTITLE3=Haxkensack
TTITLE4=No Better Place
TTITLE5=Walley Winter Song
TTITLE6=All Kinds Of Time
TTITLE7=Little Red Light
TTITLE8=Hey Julie
TTITLE9=Halley's Waitless
TTITLE10=Hung Up On You
TTITLE11=Fire Island
TTITLE12=Peace And Love
TTITLE13=Bought For A Song
TTITLE14=Supercollider
TTITLE15=Yours And Mine
TTITLE16=Elevator Up
TTITLE17=Fuck'in CCCD
EXTD=YEAR: 2003
EXTT0=
EXTT1=
EXTT2=
EXTT3=
EXTT4=
EXTT5=
EXTT6=
EXTT7=
EXTT8=
EXTT9=
EXTT10=
EXTT11=
EXTT12=
EXTT13=
EXTT14=
EXTT15=
EXTT16=
EXTT17=
PLAYORDER=
